<svg width="33" height="40" xmlns="http://www.w3.org/2000/svg"><g fill="#794256" fill-rule="nonzero"><path d="M12.049 32.643l3.813-2.26a1.4 1.4 0 0 1 1.772.288c1.264 1.459 2.46 2.188 3.586 2.188 1.758 0 2.554-1.088 2.554-2.175 0-3.64-9.462-4.896-9.462-12.344 0-4.854 3.977-9.08 9.545-9.08 4.146 0 7.043 1.864 8.694 5.593a1.4 1.4 0 0 1-.63 1.807l-3.77 1.976a1.4 1.4 0 0 1-1.785-.421c-1.087-1.507-2.05-2.26-2.885-2.26-1.55 0-2.22 1.088-2.22 2.008 0 3.515 9.462 4.059 9.462 12.344 0 5.523-4.186 9.415-9.964 9.415-3.848 0-6.902-1.7-9.162-5.1a1.4 1.4 0 0 1 .452-1.979z"/><path d="M14.13 18.913h-4.05a1.4 1.4 0 0 0-1.371 1.118l-1.676 8.142a1.4 1.4 0 0 1-1.37 1.117H1.496a1.4 1.4 0 0 1-1.37-1.69L5.731 1.11A1.4 1.4 0 0 1 7.101 0h4.17a1.4 1.4 0 0 1 1.37 1.69l-1.878 8.837a1.4 1.4 0 0 0 1.37 1.691h2.328a1.4 1.4 0 0 0 1.37-1.109l2.124-10A1.4 1.4 0 0 1 19.325 0h4.172a1.4 1.4 0 0 1 1.37 1.69L22.08 14.858l-5.67 4.055H14.13z"/></g></svg>