<svg width="42" height="50" viewBox="0 0 42 50" fill="none" xmlns="http://www.w3.org/2000/svg">
<path d="M15.0613 40.8039L19.8275 37.9789C20.1804 37.7699 20.5955 37.6914 21.0003 37.7572C21.4052 37.823 21.774 38.0289 22.0425 38.3389C23.6225 40.1627 25.1175 41.0739 26.525 41.0739C28.7225 41.0739 29.7175 39.7139 29.7175 38.3552C29.7175 33.8052 17.89 32.2352 17.89 22.9252C17.89 16.8577 22.8613 11.5752 29.8213 11.5752C35.0038 11.5752 38.625 13.9052 40.6888 18.5664C40.8687 18.9726 40.8874 19.4319 40.7412 19.8514C40.595 20.2708 40.2947 20.619 39.9013 20.8252L35.1888 23.2952C34.8158 23.4906 34.3848 23.5449 33.975 23.4483C33.5651 23.3516 33.2039 23.1104 32.9575 22.7689C31.5988 20.8852 30.395 19.9439 29.3513 19.9439C27.4138 19.9439 26.5763 21.3039 26.5763 22.4539C26.5763 26.8477 38.4038 27.5277 38.4038 37.8839C38.4038 44.7877 33.1713 49.6527 25.9488 49.6527C21.1388 49.6527 17.3213 47.5277 14.4963 43.2777C14.3649 43.08 14.2752 42.8576 14.2324 42.6242C14.1897 42.3907 14.1949 42.1509 14.2478 41.9195C14.3006 41.6881 14.4 41.4699 14.5399 41.2781C14.6797 41.0863 14.8571 40.925 15.0613 40.8039Z" fill="black"/>
<path d="M17.6626 23.6413H12.6001C12.1972 23.6413 11.8067 23.7804 11.4945 24.035C11.1823 24.2896 10.9675 24.6441 10.8863 25.0388L8.79134 35.2163C8.70998 35.6104 8.49524 35.9645 8.18331 36.2188C7.87137 36.4732 7.48131 36.6122 7.07884 36.6125H1.87009C1.60947 36.6126 1.35213 36.5544 1.11685 36.4423C0.881581 36.3302 0.674317 36.167 0.5102 35.9645C0.346083 35.7621 0.229255 35.5255 0.168249 35.2721C0.107244 35.0188 0.1036 34.755 0.157585 34.5L7.16384 1.3875C7.24695 0.994949 7.46244 0.642883 7.77421 0.390284C8.08598 0.137685 8.47508 -0.000104465 8.87634 1.48805e-07H14.0888C14.3495 -6.78019e-05 14.6068 0.0580744 14.8421 0.170181C15.0773 0.282287 15.2846 0.445526 15.4487 0.647978C15.6128 0.850429 15.7297 1.08698 15.7907 1.34036C15.8517 1.59373 15.8553 1.85754 15.8013 2.1125L13.4538 13.1588C13.3996 13.4138 13.4031 13.6777 13.464 13.9313C13.5249 14.1848 13.6417 14.4215 13.8059 14.6241C13.97 14.8267 14.1773 14.9901 14.4127 15.1023C14.6481 15.2144 14.9056 15.2726 15.1663 15.2725H18.0763C18.4774 15.2727 18.8664 15.1351 19.1781 14.8827C19.4899 14.6304 19.7055 14.2786 19.7888 13.8863L22.4438 1.38625C22.5272 0.99393 22.7428 0.642151 23.0545 0.389798C23.3663 0.137446 23.7553 -0.000165183 24.1563 1.48805e-07H29.3713C29.632 -6.78019e-05 29.8893 0.0580744 30.1246 0.170181C30.3598 0.282287 30.5671 0.445526 30.7312 0.647978C30.8953 0.850429 31.0122 1.08698 31.0732 1.34036C31.1342 1.59373 31.1378 1.85754 31.0838 2.1125L27.6001 18.5725L20.5126 23.6413H17.6626Z" fill="black"/>
</svg>
